<svg xmlns="http://www.w3.org/2000/svg" xmlns:xlink="http://www.w3.org/1999/xlink" width="1080" zoomAndPan="magnify" viewBox="0 0 810 809.999993" height="1080" preserveAspectRatio="xMidYMid meet" version="1.0"><defs><clipPath id="7d1876a706"><path d="M 418.222656 190.765625 L 504.425781 190.765625 L 504.425781 344 L 418.222656 344 Z M 418.222656 190.765625 " clip-rule="nonzero"/></clipPath><clipPath id="1b766ab082"><path d="M 499.648438 343.875 C 487.648438 339.75 483.074219 336.148438 478.875 332.023438 C 473.625 326.699219 468.449219 319.125 463.273438 311.699219 C 457.425781 303.226562 451.125 293.324219 445.800781 283.574219 C 440.398438 273.601562 435.375 262.574219 431.175781 252.449219 C 427.425781 243.226562 423.898438 233.398438 421.726562 225.226562 C 420 218.925781 418.273438 213.074219 418.351562 207.976562 C 418.425781 203.851562 419.023438 199.800781 420.824219 196.949219 C 422.476562 194.324219 424.949219 192.148438 428.25 191.25 C 432.824219 190.050781 441.148438 192.226562 446.550781 193.648438 C 451.199219 194.925781 454.875 196.425781 459.074219 198.898438 C 463.949219 201.75 469.273438 205.351562 473.625 210.300781 C 478.875 216.375 483.75 225.976562 487.199219 233.550781 C 490.199219 240.074219 492.523438 246.449219 493.800781 252.75 C 494.925781 258.601562 495.898438 264.976562 494.851562 270.074219 C 494.023438 274.5 491.925781 278.851562 489.226562 281.925781 C 486.75 284.773438 483.375 286.949219 479.699219 288.148438 C 475.5 289.574219 469.875 289.574219 465.074219 289.050781 C 460.199219 288.449219 455.175781 286.648438 450.675781 284.699219 C 446.324219 282.824219 441.898438 280.5 438.449219 277.648438 C 435.300781 275.023438 432.300781 271.875 430.425781 268.726562 C 428.773438 265.875 427.574219 262.574219 427.351562 259.648438 C 427.199219 256.949219 428.101562 254.023438 429.074219 251.851562 C 429.898438 250.050781 431.851562 248.773438 432.449219 247.351562 C 432.898438 246.226562 432.449219 244.875 432.976562 244.273438 C 433.351562 243.824219 434.023438 243.601562 434.625 243.601562 C 435.449219 243.523438 436.648438 243.75 437.324219 244.125 C 437.851562 244.425781 438.300781 244.875 438.601562 245.476562 C 438.898438 246.300781 438.976562 248.175781 438.675781 249 C 438.449219 249.675781 438.148438 250.125 437.550781 250.425781 C 436.574219 250.875 434.324219 251.101562 433.273438 250.648438 C 432.523438 250.273438 432 249.523438 431.699219 248.773438 C 431.398438 248.101562 431.324219 247.125 431.550781 246.375 C 431.773438 245.625 432.226562 244.726562 432.898438 244.351562 C 433.726562 243.75 435.449219 243.375 436.425781 243.75 C 437.476562 244.050781 438.675781 245.324219 438.898438 246.300781 C 439.199219 247.351562 438.75 249 438.148438 249.824219 C 437.699219 250.5 436.875 250.949219 436.050781 251.101562 C 435.300781 251.25 434.398438 251.25 433.648438 250.800781 C 432.75 250.351562 431.625 249 431.476562 248.023438 C 431.324219 246.976562 431.851562 245.324219 432.601562 244.574219 C 433.351562 243.824219 436.050781 243.675781 436.050781 243.601562 C 436.050781 243.601562 432.976562 244.273438 432.976562 244.273438 C 432.976562 244.273438 434.773438 243.449219 435.601562 243.523438 C 436.425781 243.601562 437.476562 244.125 438 244.726562 C 438.601562 245.324219 439.125 246.375 439.050781 247.199219 C 439.050781 248.25 437.25 249.824219 437.550781 250.425781 C 437.699219 250.875 439.5 250.648438 439.574219 251.023438 C 439.726562 251.625 436.726562 252.824219 435.75 254.101562 C 434.851562 255.300781 434.101562 256.726562 433.949219 258.300781 C 433.800781 260.101562 434.550781 262.425781 435.601562 264.449219 C 436.949219 267 439.351562 269.699219 441.976562 271.875 C 444.898438 274.351562 448.949219 276.523438 452.699219 278.25 C 456.601562 280.050781 460.949219 281.625 465 282.300781 C 468.898438 282.898438 473.324219 283.125 476.625 282.300781 C 479.324219 281.550781 481.648438 280.351562 483.601562 278.398438 C 485.625 276.375 487.425781 273.375 488.175781 270 C 489.148438 265.800781 488.324219 260.101562 487.351562 254.925781 C 486.226562 249.074219 483.976562 243 481.199219 236.925781 C 478.125 229.949219 473.925781 221.101562 469.273438 215.550781 C 465.449219 211.050781 460.648438 207.824219 456.300781 205.199219 C 452.699219 203.023438 449.324219 201.75 445.351562 200.476562 C 440.925781 199.125 434.101562 196.949219 430.800781 197.398438 C 428.925781 197.625 427.648438 198.300781 426.675781 199.574219 C 425.476562 201.148438 425.101562 203.925781 425.023438 206.925781 C 425.023438 211.199219 426.601562 217.050781 428.25 222.976562 C 430.351562 230.773438 433.800781 240.449219 437.476562 249.523438 C 441.523438 259.425781 446.476562 270.148438 451.800781 279.898438 C 456.976562 289.425781 463.273438 299.175781 468.898438 307.351562 C 473.773438 314.398438 478.726562 321.523438 483.375 326.324219 C 486.898438 329.925781 490.273438 332.925781 493.648438 334.648438 C 496.273438 335.925781 499.726562 335.773438 501.523438 336.601562 C 502.5 337.050781 503.25 337.425781 503.699219 338.101562 C 504.148438 338.851562 504.375 339.976562 504.300781 340.726562 C 504.226562 341.324219 504 341.925781 503.625 342.375 C 503.175781 342.976562 502.125 343.648438 501.449219 343.875 C 500.851562 344.023438 499.648438 343.875 499.648438 343.875 " clip-rule="nonzero"/></clipPath><clipPath id="532a8e5fe2"><path d="M 0.222656 0.765625 L 86.425781 0.765625 L 86.425781 154 L 0.222656 154 Z M 0.222656 0.765625 " clip-rule="nonzero"/></clipPath><clipPath id="0a065bc6ed"><path d="M 81.648438 153.875 C 69.648438 149.75 65.074219 146.148438 60.875 142.023438 C 55.625 136.699219 50.449219 129.125 45.273438 121.699219 C 39.425781 113.226562 33.125 103.324219 27.800781 93.574219 C 22.398438 83.601562 17.375 72.574219 13.175781 62.449219 C 9.425781 53.226562 5.898438 43.398438 3.726562 35.226562 C 2 28.925781 0.273438 23.074219 0.351562 17.976562 C 0.425781 13.851562 1.023438 9.800781 2.824219 6.949219 C 4.476562 4.324219 6.949219 2.148438 10.25 1.25 C 14.824219 0.0507812 23.148438 2.226562 28.550781 3.648438 C 33.199219 4.925781 36.875 6.425781 41.074219 8.898438 C 45.949219 11.75 51.273438 15.351562 55.625 20.300781 C 60.875 26.375 65.75 35.976562 69.199219 43.550781 C 72.199219 50.074219 74.523438 56.449219 75.800781 62.75 C 76.925781 68.601562 77.898438 74.976562 76.851562 80.074219 C 76.023438 84.5 73.925781 88.851562 71.226562 91.925781 C 68.75 94.773438 65.375 96.949219 61.699219 98.148438 C 57.5 99.574219 51.875 99.574219 47.074219 99.050781 C 42.199219 98.449219 37.175781 96.648438 32.675781 94.699219 C 28.324219 92.824219 23.898438 90.5 20.449219 87.648438 C 17.300781 85.023438 14.300781 81.875 12.425781 78.726562 C 10.773438 75.875 9.574219 72.574219 9.351562 69.648438 C 9.199219 66.949219 10.101562 64.023438 11.074219 61.851562 C 11.898438 60.050781 13.851562 58.773438 14.449219 57.351562 C 14.898438 56.226562 14.449219 54.875 14.976562 54.273438 C 15.351562 53.824219 16.023438 53.601562 16.625 53.601562 C 17.449219 53.523438 18.648438 53.75 19.324219 54.125 C 19.851562 54.425781 20.300781 54.875 20.601562 55.476562 C 20.898438 56.300781 20.976562 58.175781 20.675781 59 C 20.449219 59.675781 20.148438 60.125 19.550781 60.425781 C 18.574219 60.875 16.324219 61.101562 15.273438 60.648438 C 14.523438 60.273438 14 59.523438 13.699219 58.773438 C 13.398438 58.101562 13.324219 57.125 13.550781 56.375 C 13.773438 55.625 14.226562 54.726562 14.898438 54.351562 C 15.726562 53.75 17.449219 53.375 18.425781 53.75 C 19.476562 54.050781 20.675781 55.324219 20.898438 56.300781 C 21.199219 57.351562 20.75 59 20.148438 59.824219 C 19.699219 60.5 18.875 60.949219 18.050781 61.101562 C 17.300781 61.25 16.398438 61.25 15.648438 60.800781 C 14.75 60.351562 13.625 59 13.476562 58.023438 C 13.324219 56.976562 13.851562 55.324219 14.601562 54.574219 C 15.351562 53.824219 18.050781 53.675781 18.050781 53.601562 C 18.050781 53.601562 14.976562 54.273438 14.976562 54.273438 C 14.976562 54.273438 16.773438 53.449219 17.601562 53.523438 C 18.425781 53.601562 19.476562 54.125 20 54.726562 C 20.601562 55.324219 21.125 56.375 21.050781 57.199219 C 21.050781 58.25 19.25 59.824219 19.550781 60.425781 C 19.699219 60.875 21.5 60.648438 21.574219 61.023438 C 21.726562 61.625 18.726562 62.824219 17.75 64.101562 C 16.851562 65.300781 16.101562 66.726562 15.949219 68.300781 C 15.800781 70.101562 16.550781 72.425781 17.601562 74.449219 C 18.949219 77 21.351562 79.699219 23.976562 81.875 C 26.898438 84.351562 30.949219 86.523438 34.699219 88.25 C 38.601562 90.050781 42.949219 91.625 47 92.300781 C 50.898438 92.898438 55.324219 93.125 58.625 92.300781 C 61.324219 91.550781 63.648438 90.351562 65.601562 88.398438 C 67.625 86.375 69.425781 83.375 70.175781 80 C 71.148438 75.800781 70.324219 70.101562 69.351562 64.925781 C 68.226562 59.074219 65.976562 53 63.199219 46.925781 C 60.125 39.949219 55.925781 31.101562 51.273438 25.550781 C 47.449219 21.050781 42.648438 17.824219 38.300781 15.199219 C 34.699219 13.023438 31.324219 11.75 27.351562 10.476562 C 22.925781 9.125 16.101562 6.949219 12.800781 7.398438 C 10.925781 7.625 9.648438 8.300781 8.675781 9.574219 C 7.476562 11.148438 7.101562 13.925781 7.023438 16.925781 C 7.023438 21.199219 8.601562 27.050781 10.25 32.976562 C 12.351562 40.773438 15.800781 50.449219 19.476562 59.523438 C 23.523438 69.425781 28.476562 80.148438 33.800781 89.898438 C 38.976562 99.425781 45.273438 109.175781 50.898438 117.351562 C 55.773438 124.398438 60.726562 131.523438 65.375 136.324219 C 68.898438 139.925781 72.273438 142.925781 75.648438 144.648438 C 78.273438 145.925781 81.726562 145.773438 83.523438 146.601562 C 84.5 147.050781 85.25 147.425781 85.699219 148.101562 C 86.148438 148.851562 86.375 149.976562 86.300781 150.726562 C 86.226562 151.324219 86 151.925781 85.625 152.375 C 85.175781 152.976562 84.125 153.648438 83.449219 153.875 C 82.851562 154.023438 81.648438 153.875 81.648438 153.875 " clip-rule="nonzero"/></clipPath><clipPath id="61ecf840ce"><rect x="0" width="87" y="0" height="154"/></clipPath><clipPath id="e84f15cd0f"><path d="M 405 0 C 181.324219 0 0 181.324219 0 405 C 0 628.675781 181.324219 810 405 810 C 628.675781 810 810 628.675781 810 405 C 810 181.324219 628.675781 0 405 0 Z M 405 0 " clip-rule="nonzero"/></clipPath><clipPath id="ed736be3a2"><path d="M 0 0 L 810 0 L 810 810 L 0 810 Z M 0 0 " clip-rule="nonzero"/></clipPath><clipPath id="7c7e096d77"><path d="M 405 0 C 181.324219 0 0 181.324219 0 405 C 0 628.675781 181.324219 810 405 810 C 628.675781 810 810 628.675781 810 405 C 810 181.324219 628.675781 0 405 0 Z M 405 0 " clip-rule="nonzero"/></clipPath><clipPath id="5514f74d8c"><rect x="0" width="810" y="0" height="810"/></clipPath></defs><g clip-path="url(#7d1876a706)"><g clip-path="url(#1b766ab082)"><g transform="matrix(1, 0, 0, 1, 418, 190)"><g clip-path="url(#61ecf840ce)"><g clip-path="url(#532a8e5fe2)"><g clip-path="url(#0a065bc6ed)"><rect x="-596.2" width="1166.4" fill="#1e1e1e" height="1166.39999" y="-368.199998" fill-opacity="1"/></g></g></g></g></g></g><g clip-path="url(#e84f15cd0f)"><g transform="matrix(1, 0, 0, 1, 0, 0.000000000000039746)"><g clip-path="url(#5514f74d8c)"><g clip-path="url(#ed736be3a2)"><g clip-path="url(#7c7e096d77)"><rect x="-178.2" width="1166.4" fill="#4b90f2" height="1166.39999" y="-178.199998" fill-opacity="1"/></g></g></g></g></g></svg>