<svg xmlns="http://www.w3.org/2000/svg" xmlns:xlink="http://www.w3.org/1999/xlink" width="1080" zoomAndPan="magnify" viewBox="0 0 810 269.999989" height="360" preserveAspectRatio="xMidYMid meet" version="1.0"><defs><g/><clipPath id="8c564af0ac"><rect x="0" width="809" y="0" height="266"/></clipPath></defs><g transform="matrix(1, 0, 0, 1, 1, 4)"><g clip-path="url(#8c564af0ac)"><g fill="#e5e7eb" fill-opacity="0.3882"><g transform="translate(50.244059, 252.553397)"><g><path d="M -2.203125 -2.96875 C -1.867188 -10.5 -1.8125 -18.535156 -2.03125 -27.078125 C -2.394531 -35.410156 -2.984375 -43.988281 -3.796875 -52.8125 C -4.773438 -61.414062 -5.84375 -70 -7 -78.5625 C -8.15625 -87.125 -9.335938 -95.316406 -10.546875 -103.140625 C -13.609375 -121.453125 -17.132812 -139.675781 -21.125 -157.8125 C -17.113281 -159.46875 -11.9375 -161.328125 -5.59375 -163.390625 C 0.613281 -165.234375 7.425781 -166.816406 14.84375 -168.140625 C 22.445312 -169.492188 30.269531 -170.140625 38.3125 -170.078125 C 46.15625 -169.992188 53.507812 -168.515625 60.375 -165.640625 C 67.09375 -162.535156 72.890625 -157.78125 77.765625 -151.375 C 82.671875 -144.769531 85.867188 -135.71875 87.359375 -124.21875 C 88.285156 -116.914062 88.148438 -110.359375 86.953125 -104.546875 C 85.742188 -98.734375 83.851562 -93.632812 81.28125 -89.25 C 78.550781 -84.65625 75.222656 -80.796875 71.296875 -77.671875 C 67.222656 -74.335938 62.875 -71.507812 58.25 -69.1875 C 60.5 -66.96875 66.082031 -61.804688 75 -53.703125 C 83.945312 -45.398438 96.847656 -34.8125 113.703125 -21.9375 C 113.160156 -21.84375 112.507812 -21.820312 111.75 -21.875 L 106.3125 -20.90625 C 103.425781 -20.394531 99.738281 -19.644531 95.25 -18.65625 C 90.582031 -17.632812 84.945312 -16.25 78.34375 -14.5 C 74.78125 -19.851562 71.003906 -25.347656 67.015625 -30.984375 C 63.546875 -35.773438 59.796875 -41.082031 55.765625 -46.90625 C 51.597656 -52.507812 47.367188 -57.914062 43.078125 -63.125 C 37.742188 -61.625 32.546875 -60.421875 27.484375 -59.515625 C 26.035156 -59.253906 24.660156 -59.097656 23.359375 -59.046875 C 21.910156 -58.785156 20.460938 -58.523438 19.015625 -58.265625 C 19.878906 -51.335938 20.753906 -44.875 21.640625 -38.875 C 22.515625 -32.863281 23.195312 -27.472656 23.6875 -22.703125 C 24.25 -17.390625 24.753906 -12.441406 25.203125 -7.859375 Z M 1.953125 -146.25 C 3.222656 -143.300781 4.488281 -139.328125 5.75 -134.328125 C 7.007812 -129.316406 8.296875 -123.660156 9.609375 -117.359375 C 10.921875 -111.054688 12.207031 -104.378906 13.46875 -97.328125 C 14.570312 -90.054688 15.585938 -82.769531 16.515625 -75.46875 C 22.847656 -76.601562 29.175781 -78.289062 35.5 -80.53125 C 41.632812 -82.75 47.070312 -85.769531 51.8125 -89.59375 C 56.351562 -93.394531 59.820312 -98.03125 62.21875 -103.5 C 64.59375 -108.957031 65.179688 -115.59375 63.984375 -123.40625 C 62.972656 -130.132812 60.8125 -135.445312 57.5 -139.34375 C 54.195312 -143.238281 50.238281 -146.082031 45.625 -147.875 C 41.007812 -149.664062 35.984375 -150.632812 30.546875 -150.78125 C 25.140625 -150.757812 19.8125 -150.28125 14.5625 -149.34375 C 10.207031 -148.570312 6.003906 -147.539062 1.953125 -146.25 Z M 1.953125 -146.25 "/></g></g></g><g fill="#e5e7eb" fill-opacity="0.3882"><g transform="translate(156.447387, 233.590442)"><g><path d="M 85.9375 -143.5625 C 88.738281 -135.375 89.535156 -126.953125 88.328125 -118.296875 C 87.148438 -109.460938 84.019531 -101.414062 78.9375 -94.15625 C 73.695312 -86.707031 66.664062 -80.335938 57.84375 -75.046875 C 49.019531 -69.753906 38.492188 -66.394531 26.265625 -64.96875 C 25.347656 -64.851562 24.519531 -64.84375 23.78125 -64.9375 C 22.863281 -64.832031 21.945312 -64.726562 21.03125 -64.625 C 22.050781 -57.53125 23.023438 -50.800781 23.953125 -44.4375 C 24.878906 -38.0625 25.804688 -32.519531 26.734375 -27.8125 C 27.546875 -22.363281 28.414062 -17.285156 29.34375 -12.578125 L 4.890625 -8.0625 C 1.335938 -28.9375 -1.382812 -49.066406 -3.28125 -68.453125 C -5.15625 -87.671875 -6.523438 -104.90625 -7.390625 -120.15625 C -8.335938 -137.8125 -8.800781 -154.503906 -8.78125 -170.234375 C -6.46875 -171.054688 -3.867188 -171.820312 -0.984375 -172.53125 C 4.003906 -174.039062 10.332031 -175.242188 18 -176.140625 C 24.019531 -176.835938 30.375 -177.117188 37.0625 -176.984375 C 43.757812 -176.648438 50.296875 -175.375 56.671875 -173.15625 C 63.023438 -170.945312 68.785156 -167.554688 73.953125 -162.984375 C 79.128906 -158.210938 83.125 -151.738281 85.9375 -143.5625 Z M 65.8125 -125.65625 C 65.800781 -132.132812 64.421875 -137.613281 61.671875 -142.09375 C 58.953125 -146.414062 55.492188 -149.90625 51.296875 -152.5625 C 47.097656 -155.21875 42.441406 -157.078125 37.328125 -158.140625 C 32.210938 -159.015625 27.191406 -159.164062 22.265625 -158.59375 C 19.523438 -158.269531 16.820312 -157.675781 14.15625 -156.8125 C 13.738281 -152.507812 13.570312 -147.585938 13.65625 -142.046875 C 13.769531 -136.316406 14.109375 -130.253906 14.671875 -123.859375 C 15.078125 -117.242188 15.6875 -110.460938 16.5 -103.515625 C 17.15625 -96.378906 17.882812 -89.34375 18.6875 -82.40625 C 19.59375 -82.507812 20.503906 -82.613281 21.421875 -82.71875 C 22.171875 -82.632812 23.003906 -82.644531 23.921875 -82.75 C 37.796875 -84.363281 48.285156 -88.816406 55.390625 -96.109375 C 62.515625 -103.234375 65.988281 -113.082031 65.8125 -125.65625 Z M 65.8125 -125.65625 "/></g></g></g><g fill="#e5e7eb" fill-opacity="0.3882"><g transform="translate(257.803846, 221.270704)"><g><path d="M 122.53125 -27.359375 C 118.125 -23.640625 113.238281 -20.347656 107.875 -17.484375 C 103.21875 -14.835938 97.632812 -12.429688 91.125 -10.265625 C 84.4375 -7.898438 77.054688 -6.503906 68.984375 -6.078125 L 66.78125 -5.96875 C 57.207031 -5.832031 48.378906 -7.394531 40.296875 -10.65625 C 32.222656 -13.726562 25.25 -18.613281 19.375 -25.3125 C 13.519531 -31.8125 8.945312 -40.128906 5.65625 -50.265625 C 2.195312 -60.390625 0.207031 -72.253906 -0.3125 -85.859375 C -0.570312 -97.804688 0.679688 -109.003906 3.453125 -119.453125 C 6.222656 -129.710938 10.441406 -138.765625 16.109375 -146.609375 C 21.785156 -154.253906 28.828125 -160.414062 37.234375 -165.09375 C 45.460938 -169.75 54.898438 -172.359375 65.546875 -172.921875 C 76.367188 -173.484375 88.140625 -171.796875 100.859375 -167.859375 L 98.515625 -149.234375 C 94.773438 -150.328125 89.929688 -151.546875 83.984375 -152.890625 C 78.023438 -154.054688 71.835938 -154.472656 65.421875 -154.140625 C 59.898438 -153.847656 54.53125 -152.648438 49.3125 -150.546875 C 44.09375 -148.421875 39.492188 -144.773438 35.515625 -139.609375 C 31.554688 -134.429688 28.421875 -127.457031 26.109375 -118.6875 C 23.816406 -109.925781 22.84375 -98.742188 23.1875 -85.140625 C 23.613281 -73.378906 25.21875 -63.613281 28 -55.84375 C 30.820312 -47.894531 34.460938 -41.550781 38.921875 -36.8125 C 43.410156 -32.082031 48.460938 -28.847656 54.078125 -27.109375 C 59.691406 -25.191406 65.441406 -24.382812 71.328125 -24.6875 C 76.085938 -24.9375 80.820312 -25.832031 85.53125 -27.375 C 90.25 -28.71875 94.753906 -30.519531 99.046875 -32.78125 C 99.160156 -34.25 98.976562 -37.734375 98.5 -43.234375 C 98.050781 -48.546875 97.488281 -54.125 96.8125 -59.96875 C 96.082031 -66.925781 95.316406 -74.523438 94.515625 -82.765625 L 57.8125 -77.28125 L 55.359375 -98.140625 C 57.753906 -97.890625 61.15625 -97.878906 65.5625 -98.109375 C 69.976562 -98.160156 74.757812 -98.316406 79.90625 -98.578125 C 84.113281 -98.804688 88.238281 -99.113281 92.28125 -99.5 C 96.125 -99.695312 99.609375 -99.878906 102.734375 -100.046875 C 106.398438 -100.234375 109.976562 -100.507812 113.46875 -100.875 C 115.289062 -94.351562 116.78125 -86.882812 117.9375 -78.46875 C 118.925781 -70.050781 119.800781 -62 120.5625 -54.3125 C 121.394531 -45.519531 122.050781 -36.535156 122.53125 -27.359375 Z M 122.53125 -27.359375 "/></g></g></g><g fill="#e5e7eb" fill-opacity="0.3882"><g transform="translate(381.874895, 215.730971)"><g/></g></g><g fill="#e5e7eb" fill-opacity="0.3882"><g transform="translate(421.44759, 214.704584)"><g><path d="M 84.3125 -4.296875 C 83.757812 -14.066406 83.785156 -24.640625 84.390625 -36.015625 C 84.816406 -47.398438 85.429688 -58.96875 86.234375 -70.71875 C 83.117188 -71.019531 80.191406 -71.222656 77.453125 -71.328125 L 69.171875 -71.640625 C 60.734375 -71.953125 53.65625 -72.03125 47.9375 -71.875 C 42.226562 -71.71875 37.347656 -71.441406 33.296875 -71.046875 C 32.410156 -62.242188 31.460938 -54.179688 30.453125 -46.859375 C 29.441406 -39.359375 28.46875 -32.960938 27.53125 -27.671875 C 26.550781 -21.265625 25.503906 -15.503906 24.390625 -10.390625 C 19.242188 -10.578125 14.273438 -10.492188 9.484375 -10.140625 C 6.898438 -10.046875 4.316406 -9.867188 1.734375 -9.609375 C 3.492188 -17.253906 5 -25.375 6.25 -33.96875 C 7.488281 -42.570312 8.632812 -51.175781 9.6875 -59.78125 C 10.5625 -68.394531 11.347656 -77.007812 12.046875 -85.625 C 12.546875 -94.257812 13.035156 -102.429688 13.515625 -110.140625 C 14.554688 -128.304688 15.140625 -146.398438 15.265625 -164.421875 L 35.1875 -165.609375 C 36.1875 -153.046875 36.632812 -140.519531 36.53125 -128.03125 C 36.414062 -115.34375 35.957031 -103.128906 35.15625 -91.390625 L 87.671875 -86.9375 C 88.617188 -97.382812 89.632812 -107.28125 90.71875 -116.625 C 91.613281 -125.78125 92.554688 -133.835938 93.546875 -140.796875 C 94.410156 -149.035156 95.347656 -156.722656 96.359375 -163.859375 L 117.046875 -163.90625 C 114.328125 -145.257812 112.429688 -126.570312 111.359375 -107.84375 C 110.109375 -89.125 109.375 -72.046875 109.15625 -56.609375 C 108.863281 -38.765625 108.957031 -21.5625 109.4375 -5 Z M 84.3125 -4.296875 "/></g></g></g><g fill="#e5e7eb" fill-opacity="0.3882"><g transform="translate(529.810597, 218.18211)"><g><path d="M 145.53125 -142.515625 C 145.132812 -131.828125 144.738281 -121.238281 144.34375 -110.75 C 143.957031 -101.914062 143.515625 -92.535156 143.015625 -82.609375 C 142.316406 -72.703125 141.554688 -63.910156 140.734375 -56.234375 C 139.628906 -45.816406 137.257812 -36.550781 133.625 -28.4375 C 129.78125 -20.15625 124.800781 -13.296875 118.6875 -7.859375 C 112.351562 -2.242188 104.988281 1.78125 96.59375 4.21875 C 88.03125 6.613281 78.628906 7.265625 68.390625 6.171875 C 49.921875 4.203125 35.660156 -3.410156 25.609375 -16.671875 C 15.578125 -29.941406 10.867188 -48.097656 11.484375 -71.140625 C 11.890625 -80.148438 13.019531 -89.914062 14.875 -100.4375 C 16.539062 -110.800781 18.410156 -120.492188 20.484375 -129.515625 C 22.703125 -140.003906 25.296875 -150.445312 28.265625 -160.84375 L 53.0625 -156.8125 C 47.875 -141.09375 43.644531 -125.742188 40.375 -110.765625 C 36.914062 -95.597656 35.007812 -79.441406 34.65625 -62.296875 C 34.5625 -56.203125 35.128906 -50.222656 36.359375 -44.359375 C 37.578125 -38.503906 39.609375 -33.296875 42.453125 -28.734375 C 45.285156 -24.179688 49.035156 -20.367188 53.703125 -17.296875 C 58.359375 -14.203125 64.066406 -12.296875 70.828125 -11.578125 C 75.253906 -11.472656 79.921875 -11.894531 84.828125 -12.84375 C 89.734375 -13.789062 94.398438 -15.972656 98.828125 -19.390625 C 103.242188 -22.617188 107.160156 -27.285156 110.578125 -33.390625 C 114.015625 -39.492188 116.367188 -47.65625 117.640625 -57.875 C 118.003906 -61.34375 118.421875 -65.269531 118.890625 -69.65625 C 119.160156 -73.875 119.351562 -78.296875 119.46875 -82.921875 C 119.59375 -87.515625 119.734375 -92.203125 119.890625 -96.984375 C 120.015625 -101.785156 120.039062 -106.40625 119.96875 -110.84375 C 120.144531 -121.1875 120.078125 -131.828125 119.765625 -142.765625 Z M 145.53125 -142.515625 "/></g></g></g><g fill="#e5e7eb" fill-opacity="0.3882"><g transform="translate(661.935895, 232.52873)"><g><path d="M 76.6875 -77.109375 C 80.820312 -76.179688 85.800781 -74.269531 91.625 -71.375 C 97.269531 -68.507812 102.476562 -64.691406 107.25 -59.921875 C 111.8125 -55.191406 115.265625 -49.441406 117.609375 -42.671875 C 119.773438 -35.953125 119.335938 -28.191406 116.296875 -19.390625 C 113.472656 -10.929688 109.335938 -4.484375 103.890625 -0.046875 C 98.222656 4.554688 91.953125 7.832031 85.078125 9.78125 C 78.015625 11.707031 70.675781 12.550781 63.0625 12.3125 C 55.445312 12.070312 48.195312 11.34375 41.3125 10.125 C 36.425781 9.257812 31.84375 8.265625 27.5625 7.140625 C 23.289062 6.003906 19.554688 4.96875 16.359375 4.03125 C 12.660156 2.8125 9.242188 1.550781 6.109375 0.25 C 6.867188 -8.207031 7.972656 -17.070312 9.421875 -26.34375 C 10.859375 -35.414062 12.59375 -44.617188 14.625 -53.953125 C 16.4375 -63.148438 18.523438 -72.300781 20.890625 -81.40625 C 23.035156 -90.363281 25.207031 -98.941406 27.40625 -107.140625 C 32.6875 -126.367188 38.492188 -145.40625 44.828125 -164.25 C 48.253906 -164.582031 51.925781 -164.765625 55.84375 -164.796875 C 59.382812 -164.734375 63.375 -164.585938 67.8125 -164.359375 C 72.21875 -163.960938 76.773438 -163.34375 81.484375 -162.5 C 87.097656 -161.507812 92.71875 -160.046875 98.34375 -158.109375 C 103.945312 -155.992188 109.0625 -153.222656 113.6875 -149.796875 C 118.070312 -146.210938 121.675781 -141.835938 124.5 -136.671875 C 127.28125 -131.316406 128.660156 -124.910156 128.640625 -117.453125 C 128.734375 -109.585938 127.21875 -103.132812 124.09375 -98.09375 C 120.925781 -92.875 116.921875 -88.734375 112.078125 -85.671875 C 107.078125 -82.640625 101.46875 -80.460938 95.25 -79.140625 C 89.039062 -77.816406 82.851562 -77.140625 76.6875 -77.109375 Z M 32.515625 -9.625 L 34.96875 -9.1875 C 36.769531 -8.863281 39.40625 -8.492188 42.875 -8.078125 C 46.351562 -7.648438 50.234375 -7.421875 54.515625 -7.390625 C 58.617188 -7.410156 62.972656 -7.757812 67.578125 -8.4375 C 72.179688 -9.113281 76.425781 -10.414062 80.3125 -12.34375 C 84.164062 -14.09375 87.503906 -16.582031 90.328125 -19.8125 C 92.953125 -23.070312 94.640625 -27.34375 95.390625 -32.625 C 96.304688 -38.8125 94.941406 -44.28125 91.296875 -49.03125 C 87.484375 -53.820312 82.707031 -57.9375 76.96875 -61.375 C 71.050781 -64.851562 64.929688 -67.710938 58.609375 -69.953125 C 52.078125 -72.046875 46.457031 -73.507812 41.75 -74.34375 C 39.21875 -63.226562 37.171875 -52.210938 35.609375 -41.296875 C 33.828125 -30.203125 32.796875 -19.644531 32.515625 -9.625 Z M 63.546875 -146.65625 C 60.878906 -140.03125 58.0625 -132.035156 55.09375 -122.671875 C 51.914062 -113.148438 48.890625 -102.953125 46.015625 -92.078125 C 49.816406 -91.398438 54.492188 -90.941406 60.046875 -90.703125 C 65.609375 -90.460938 71.265625 -90.769531 77.015625 -91.625 C 82.585938 -92.488281 87.835938 -94.171875 92.765625 -96.671875 C 97.460938 -99.015625 101.0625 -102.476562 103.5625 -107.0625 C 106.132812 -112.019531 107.242188 -116.679688 106.890625 -121.046875 C 106.328125 -125.242188 104.660156 -128.988281 101.890625 -132.28125 C 99.109375 -135.570312 95.40625 -138.375 90.78125 -140.6875 C 85.9375 -142.863281 80.523438 -144.484375 74.546875 -145.546875 C 71.109375 -146.148438 67.441406 -146.519531 63.546875 -146.65625 Z M 63.546875 -146.65625 "/></g></g></g><g fill="#e5e7eb" fill-opacity="1"><g transform="translate(41.9584, 244.267772)"><g><path d="M -2.203125 -2.96875 C -1.867188 -10.5 -1.8125 -18.535156 -2.03125 -27.078125 C -2.394531 -35.410156 -2.984375 -43.988281 -3.796875 -52.8125 C -4.773438 -61.414062 -5.84375 -70 -7 -78.5625 C -8.15625 -87.125 -9.335938 -95.316406 -10.546875 -103.140625 C -13.609375 -121.453125 -17.132812 -139.675781 -21.125 -157.8125 C -17.113281 -159.46875 -11.9375 -161.328125 -5.59375 -163.390625 C 0.613281 -165.234375 7.425781 -166.816406 14.84375 -168.140625 C 22.445312 -169.492188 30.269531 -170.140625 38.3125 -170.078125 C 46.15625 -169.992188 53.507812 -168.515625 60.375 -165.640625 C 67.09375 -162.535156 72.890625 -157.78125 77.765625 -151.375 C 82.671875 -144.769531 85.867188 -135.71875 87.359375 -124.21875 C 88.285156 -116.914062 88.148438 -110.359375 86.953125 -104.546875 C 85.742188 -98.734375 83.851562 -93.632812 81.28125 -89.25 C 78.550781 -84.65625 75.222656 -80.796875 71.296875 -77.671875 C 67.222656 -74.335938 62.875 -71.507812 58.25 -69.1875 C 60.5 -66.96875 66.082031 -61.804688 75 -53.703125 C 83.945312 -45.398438 96.847656 -34.8125 113.703125 -21.9375 C 113.160156 -21.84375 112.507812 -21.820312 111.75 -21.875 L 106.3125 -20.90625 C 103.425781 -20.394531 99.738281 -19.644531 95.25 -18.65625 C 90.582031 -17.632812 84.945312 -16.25 78.34375 -14.5 C 74.78125 -19.851562 71.003906 -25.347656 67.015625 -30.984375 C 63.546875 -35.773438 59.796875 -41.082031 55.765625 -46.90625 C 51.597656 -52.507812 47.367188 -57.914062 43.078125 -63.125 C 37.742188 -61.625 32.546875 -60.421875 27.484375 -59.515625 C 26.035156 -59.253906 24.660156 -59.097656 23.359375 -59.046875 C 21.910156 -58.785156 20.460938 -58.523438 19.015625 -58.265625 C 19.878906 -51.335938 20.753906 -44.875 21.640625 -38.875 C 22.515625 -32.863281 23.195312 -27.472656 23.6875 -22.703125 C 24.25 -17.390625 24.753906 -12.441406 25.203125 -7.859375 Z M 1.953125 -146.25 C 3.222656 -143.300781 4.488281 -139.328125 5.75 -134.328125 C 7.007812 -129.316406 8.296875 -123.660156 9.609375 -117.359375 C 10.921875 -111.054688 12.207031 -104.378906 13.46875 -97.328125 C 14.570312 -90.054688 15.585938 -82.769531 16.515625 -75.46875 C 22.847656 -76.601562 29.175781 -78.289062 35.5 -80.53125 C 41.632812 -82.75 47.070312 -85.769531 51.8125 -89.59375 C 56.351562 -93.394531 59.820312 -98.03125 62.21875 -103.5 C 64.59375 -108.957031 65.179688 -115.59375 63.984375 -123.40625 C 62.972656 -130.132812 60.8125 -135.445312 57.5 -139.34375 C 54.195312 -143.238281 50.238281 -146.082031 45.625 -147.875 C 41.007812 -149.664062 35.984375 -150.632812 30.546875 -150.78125 C 25.140625 -150.757812 19.8125 -150.28125 14.5625 -149.34375 C 10.207031 -148.570312 6.003906 -147.539062 1.953125 -146.25 Z M 1.953125 -146.25 "/></g></g></g><g fill="#e5e7eb" fill-opacity="1"><g transform="translate(148.161734, 225.304818)"><g><path d="M 85.9375 -143.5625 C 88.738281 -135.375 89.535156 -126.953125 88.328125 -118.296875 C 87.148438 -109.460938 84.019531 -101.414062 78.9375 -94.15625 C 73.695312 -86.707031 66.664062 -80.335938 57.84375 -75.046875 C 49.019531 -69.753906 38.492188 -66.394531 26.265625 -64.96875 C 25.347656 -64.851562 24.519531 -64.84375 23.78125 -64.9375 C 22.863281 -64.832031 21.945312 -64.726562 21.03125 -64.625 C 22.050781 -57.53125 23.023438 -50.800781 23.953125 -44.4375 C 24.878906 -38.0625 25.804688 -32.519531 26.734375 -27.8125 C 27.546875 -22.363281 28.414062 -17.285156 29.34375 -12.578125 L 4.890625 -8.0625 C 1.335938 -28.9375 -1.382812 -49.066406 -3.28125 -68.453125 C -5.15625 -87.671875 -6.523438 -104.90625 -7.390625 -120.15625 C -8.335938 -137.8125 -8.800781 -154.503906 -8.78125 -170.234375 C -6.46875 -171.054688 -3.867188 -171.820312 -0.984375 -172.53125 C 4.003906 -174.039062 10.332031 -175.242188 18 -176.140625 C 24.019531 -176.835938 30.375 -177.117188 37.0625 -176.984375 C 43.757812 -176.648438 50.296875 -175.375 56.671875 -173.15625 C 63.023438 -170.945312 68.785156 -167.554688 73.953125 -162.984375 C 79.128906 -158.210938 83.125 -151.738281 85.9375 -143.5625 Z M 65.8125 -125.65625 C 65.800781 -132.132812 64.421875 -137.613281 61.671875 -142.09375 C 58.953125 -146.414062 55.492188 -149.90625 51.296875 -152.5625 C 47.097656 -155.21875 42.441406 -157.078125 37.328125 -158.140625 C 32.210938 -159.015625 27.191406 -159.164062 22.265625 -158.59375 C 19.523438 -158.269531 16.820312 -157.675781 14.15625 -156.8125 C 13.738281 -152.507812 13.570312 -147.585938 13.65625 -142.046875 C 13.769531 -136.316406 14.109375 -130.253906 14.671875 -123.859375 C 15.078125 -117.242188 15.6875 -110.460938 16.5 -103.515625 C 17.15625 -96.378906 17.882812 -89.34375 18.6875 -82.40625 C 19.59375 -82.507812 20.503906 -82.613281 21.421875 -82.71875 C 22.171875 -82.632812 23.003906 -82.644531 23.921875 -82.75 C 37.796875 -84.363281 48.285156 -88.816406 55.390625 -96.109375 C 62.515625 -103.234375 65.988281 -113.082031 65.8125 -125.65625 Z M 65.8125 -125.65625 "/></g></g></g><g fill="#e5e7eb" fill-opacity="1"><g transform="translate(249.518178, 212.985078)"><g><path d="M 122.53125 -27.359375 C 118.125 -23.640625 113.238281 -20.347656 107.875 -17.484375 C 103.21875 -14.835938 97.632812 -12.429688 91.125 -10.265625 C 84.4375 -7.898438 77.054688 -6.503906 68.984375 -6.078125 L 66.78125 -5.96875 C 57.207031 -5.832031 48.378906 -7.394531 40.296875 -10.65625 C 32.222656 -13.726562 25.25 -18.613281 19.375 -25.3125 C 13.519531 -31.8125 8.945312 -40.128906 5.65625 -50.265625 C 2.195312 -60.390625 0.207031 -72.253906 -0.3125 -85.859375 C -0.570312 -97.804688 0.679688 -109.003906 3.453125 -119.453125 C 6.222656 -129.710938 10.441406 -138.765625 16.109375 -146.609375 C 21.785156 -154.253906 28.828125 -160.414062 37.234375 -165.09375 C 45.460938 -169.75 54.898438 -172.359375 65.546875 -172.921875 C 76.367188 -173.484375 88.140625 -171.796875 100.859375 -167.859375 L 98.515625 -149.234375 C 94.773438 -150.328125 89.929688 -151.546875 83.984375 -152.890625 C 78.023438 -154.054688 71.835938 -154.472656 65.421875 -154.140625 C 59.898438 -153.847656 54.53125 -152.648438 49.3125 -150.546875 C 44.09375 -148.421875 39.492188 -144.773438 35.515625 -139.609375 C 31.554688 -134.429688 28.421875 -127.457031 26.109375 -118.6875 C 23.816406 -109.925781 22.84375 -98.742188 23.1875 -85.140625 C 23.613281 -73.378906 25.21875 -63.613281 28 -55.84375 C 30.820312 -47.894531 34.460938 -41.550781 38.921875 -36.8125 C 43.410156 -32.082031 48.460938 -28.847656 54.078125 -27.109375 C 59.691406 -25.191406 65.441406 -24.382812 71.328125 -24.6875 C 76.085938 -24.9375 80.820312 -25.832031 85.53125 -27.375 C 90.25 -28.71875 94.753906 -30.519531 99.046875 -32.78125 C 99.160156 -34.25 98.976562 -37.734375 98.5 -43.234375 C 98.050781 -48.546875 97.488281 -54.125 96.8125 -59.96875 C 96.082031 -66.925781 95.316406 -74.523438 94.515625 -82.765625 L 57.8125 -77.28125 L 55.359375 -98.140625 C 57.753906 -97.890625 61.15625 -97.878906 65.5625 -98.109375 C 69.976562 -98.160156 74.757812 -98.316406 79.90625 -98.578125 C 84.113281 -98.804688 88.238281 -99.113281 92.28125 -99.5 C 96.125 -99.695312 99.609375 -99.878906 102.734375 -100.046875 C 106.398438 -100.234375 109.976562 -100.507812 113.46875 -100.875 C 115.289062 -94.351562 116.78125 -86.882812 117.9375 -78.46875 C 118.925781 -70.050781 119.800781 -62 120.5625 -54.3125 C 121.394531 -45.519531 122.050781 -36.535156 122.53125 -27.359375 Z M 122.53125 -27.359375 "/></g></g></g><g fill="#e5e7eb" fill-opacity="1"><g transform="translate(373.589241, 207.445347)"><g/></g></g><g fill="#e5e7eb" fill-opacity="1"><g transform="translate(413.161927, 206.41896)"><g><path d="M 84.3125 -4.296875 C 83.757812 -14.066406 83.785156 -24.640625 84.390625 -36.015625 C 84.816406 -47.398438 85.429688 -58.96875 86.234375 -70.71875 C 83.117188 -71.019531 80.191406 -71.222656 77.453125 -71.328125 L 69.171875 -71.640625 C 60.734375 -71.953125 53.65625 -72.03125 47.9375 -71.875 C 42.226562 -71.71875 37.347656 -71.441406 33.296875 -71.046875 C 32.410156 -62.242188 31.460938 -54.179688 30.453125 -46.859375 C 29.441406 -39.359375 28.46875 -32.960938 27.53125 -27.671875 C 26.550781 -21.265625 25.503906 -15.503906 24.390625 -10.390625 C 19.242188 -10.578125 14.273438 -10.492188 9.484375 -10.140625 C 6.898438 -10.046875 4.316406 -9.867188 1.734375 -9.609375 C 3.492188 -17.253906 5 -25.375 6.25 -33.96875 C 7.488281 -42.570312 8.632812 -51.175781 9.6875 -59.78125 C 10.5625 -68.394531 11.347656 -77.007812 12.046875 -85.625 C 12.546875 -94.257812 13.035156 -102.429688 13.515625 -110.140625 C 14.554688 -128.304688 15.140625 -146.398438 15.265625 -164.421875 L 35.1875 -165.609375 C 36.1875 -153.046875 36.632812 -140.519531 36.53125 -128.03125 C 36.414062 -115.34375 35.957031 -103.128906 35.15625 -91.390625 L 87.671875 -86.9375 C 88.617188 -97.382812 89.632812 -107.28125 90.71875 -116.625 C 91.613281 -125.78125 92.554688 -133.835938 93.546875 -140.796875 C 94.410156 -149.035156 95.347656 -156.722656 96.359375 -163.859375 L 117.046875 -163.90625 C 114.328125 -145.257812 112.429688 -126.570312 111.359375 -107.84375 C 110.109375 -89.125 109.375 -72.046875 109.15625 -56.609375 C 108.863281 -38.765625 108.957031 -21.5625 109.4375 -5 Z M 84.3125 -4.296875 "/></g></g></g><g fill="#e5e7eb" fill-opacity="1"><g transform="translate(521.524981, 209.896485)"><g><path d="M 145.53125 -142.515625 C 145.132812 -131.828125 144.738281 -121.238281 144.34375 -110.75 C 143.957031 -101.914062 143.515625 -92.535156 143.015625 -82.609375 C 142.316406 -72.703125 141.554688 -63.910156 140.734375 -56.234375 C 139.628906 -45.816406 137.257812 -36.550781 133.625 -28.4375 C 129.78125 -20.15625 124.800781 -13.296875 118.6875 -7.859375 C 112.351562 -2.242188 104.988281 1.78125 96.59375 4.21875 C 88.03125 6.613281 78.628906 7.265625 68.390625 6.171875 C 49.921875 4.203125 35.660156 -3.410156 25.609375 -16.671875 C 15.578125 -29.941406 10.867188 -48.097656 11.484375 -71.140625 C 11.890625 -80.148438 13.019531 -89.914062 14.875 -100.4375 C 16.539062 -110.800781 18.410156 -120.492188 20.484375 -129.515625 C 22.703125 -140.003906 25.296875 -150.445312 28.265625 -160.84375 L 53.0625 -156.8125 C 47.875 -141.09375 43.644531 -125.742188 40.375 -110.765625 C 36.914062 -95.597656 35.007812 -79.441406 34.65625 -62.296875 C 34.5625 -56.203125 35.128906 -50.222656 36.359375 -44.359375 C 37.578125 -38.503906 39.609375 -33.296875 42.453125 -28.734375 C 45.285156 -24.179688 49.035156 -20.367188 53.703125 -17.296875 C 58.359375 -14.203125 64.066406 -12.296875 70.828125 -11.578125 C 75.253906 -11.472656 79.921875 -11.894531 84.828125 -12.84375 C 89.734375 -13.789062 94.398438 -15.972656 98.828125 -19.390625 C 103.242188 -22.617188 107.160156 -27.285156 110.578125 -33.390625 C 114.015625 -39.492188 116.367188 -47.65625 117.640625 -57.875 C 118.003906 -61.34375 118.421875 -65.269531 118.890625 -69.65625 C 119.160156 -73.875 119.351562 -78.296875 119.46875 -82.921875 C 119.59375 -87.515625 119.734375 -92.203125 119.890625 -96.984375 C 120.015625 -101.785156 120.039062 -106.40625 119.96875 -110.84375 C 120.144531 -121.1875 120.078125 -131.828125 119.765625 -142.765625 Z M 145.53125 -142.515625 "/></g></g></g><g fill="#e5e7eb" fill-opacity="1"><g transform="translate(653.65028, 224.243104)"><g><path d="M 76.6875 -77.109375 C 80.820312 -76.179688 85.800781 -74.269531 91.625 -71.375 C 97.269531 -68.507812 102.476562 -64.691406 107.25 -59.921875 C 111.8125 -55.191406 115.265625 -49.441406 117.609375 -42.671875 C 119.773438 -35.953125 119.335938 -28.191406 116.296875 -19.390625 C 113.472656 -10.929688 109.335938 -4.484375 103.890625 -0.046875 C 98.222656 4.554688 91.953125 7.832031 85.078125 9.78125 C 78.015625 11.707031 70.675781 12.550781 63.0625 12.3125 C 55.445312 12.070312 48.195312 11.34375 41.3125 10.125 C 36.425781 9.257812 31.84375 8.265625 27.5625 7.140625 C 23.289062 6.003906 19.554688 4.96875 16.359375 4.03125 C 12.660156 2.8125 9.242188 1.550781 6.109375 0.25 C 6.867188 -8.207031 7.972656 -17.070312 9.421875 -26.34375 C 10.859375 -35.414062 12.59375 -44.617188 14.625 -53.953125 C 16.4375 -63.148438 18.523438 -72.300781 20.890625 -81.40625 C 23.035156 -90.363281 25.207031 -98.941406 27.40625 -107.140625 C 32.6875 -126.367188 38.492188 -145.40625 44.828125 -164.25 C 48.253906 -164.582031 51.925781 -164.765625 55.84375 -164.796875 C 59.382812 -164.734375 63.375 -164.585938 67.8125 -164.359375 C 72.21875 -163.960938 76.773438 -163.34375 81.484375 -162.5 C 87.097656 -161.507812 92.71875 -160.046875 98.34375 -158.109375 C 103.945312 -155.992188 109.0625 -153.222656 113.6875 -149.796875 C 118.070312 -146.210938 121.675781 -141.835938 124.5 -136.671875 C 127.28125 -131.316406 128.660156 -124.910156 128.640625 -117.453125 C 128.734375 -109.585938 127.21875 -103.132812 124.09375 -98.09375 C 120.925781 -92.875 116.921875 -88.734375 112.078125 -85.671875 C 107.078125 -82.640625 101.46875 -80.460938 95.25 -79.140625 C 89.039062 -77.816406 82.851562 -77.140625 76.6875 -77.109375 Z M 32.515625 -9.625 L 34.96875 -9.1875 C 36.769531 -8.863281 39.40625 -8.492188 42.875 -8.078125 C 46.351562 -7.648438 50.234375 -7.421875 54.515625 -7.390625 C 58.617188 -7.410156 62.972656 -7.757812 67.578125 -8.4375 C 72.179688 -9.113281 76.425781 -10.414062 80.3125 -12.34375 C 84.164062 -14.09375 87.503906 -16.582031 90.328125 -19.8125 C 92.953125 -23.070312 94.640625 -27.34375 95.390625 -32.625 C 96.304688 -38.8125 94.941406 -44.28125 91.296875 -49.03125 C 87.484375 -53.820312 82.707031 -57.9375 76.96875 -61.375 C 71.050781 -64.851562 64.929688 -67.710938 58.609375 -69.953125 C 52.078125 -72.046875 46.457031 -73.507812 41.75 -74.34375 C 39.21875 -63.226562 37.171875 -52.210938 35.609375 -41.296875 C 33.828125 -30.203125 32.796875 -19.644531 32.515625 -9.625 Z M 63.546875 -146.65625 C 60.878906 -140.03125 58.0625 -132.035156 55.09375 -122.671875 C 51.914062 -113.148438 48.890625 -102.953125 46.015625 -92.078125 C 49.816406 -91.398438 54.492188 -90.941406 60.046875 -90.703125 C 65.609375 -90.460938 71.265625 -90.769531 77.015625 -91.625 C 82.585938 -92.488281 87.835938 -94.171875 92.765625 -96.671875 C 97.460938 -99.015625 101.0625 -102.476562 103.5625 -107.0625 C 106.132812 -112.019531 107.242188 -116.679688 106.890625 -121.046875 C 106.328125 -125.242188 104.660156 -128.988281 101.890625 -132.28125 C 99.109375 -135.570312 95.40625 -138.375 90.78125 -140.6875 C 85.9375 -142.863281 80.523438 -144.484375 74.546875 -145.546875 C 71.109375 -146.148438 67.441406 -146.519531 63.546875 -146.65625 Z M 63.546875 -146.65625 "/></g></g></g></g></g></svg>