<svg xmlns="http://www.w3.org/2000/svg" xmlns:xlink="http://www.w3.org/1999/xlink" width="1080" zoomAndPan="magnify" viewBox="0 0 810 809.999993" height="1080" preserveAspectRatio="xMidYMid meet" version="1.0"><defs><filter x="0%" y="0%" width="100%" height="100%" id="4d58bb5bc1"><feColorMatrix values="0 0 0 0 1 0 0 0 0 1 0 0 0 0 1 0 0 0 1 0" color-interpolation-filters="sRGB"/></filter><mask id="ec629e51bc"><g filter="url(#4d58bb5bc1)"><rect x="-81" width="972" fill="#000000" y="-80.999999" height="971.999992" fill-opacity="0.75"/></g></mask><clipPath id="0ced8b8c9c"><path d="M 0.0351562 0.714844 L 390 0.714844 L 390 390.714844 L 0.0351562 390.714844 Z M 0.0351562 0.714844 " clip-rule="nonzero"/></clipPath><clipPath id="8d869c8ede"><rect x="0" width="390" y="0" height="391"/></clipPath></defs><path fill="#d6ad6a" d="M 725.820312 116.824219 C 725.820312 116.824219 483.90625 97.867188 404.996094 0 C 326.085938 97.867188 84.171875 116.824219 84.171875 116.824219 C 84.171875 116.824219 69.101562 366.355469 89.035156 445.425781 C 160.488281 730.929688 404.996094 810 404.996094 810 C 404.996094 810 649.664062 730.765625 720.960938 445.425781 C 740.890625 366.355469 725.820312 116.824219 725.820312 116.824219 Z M 725.820312 116.824219 " fill-opacity="1" fill-rule="nonzero"/><path fill="#2d2e83" d="M 689.523438 437.648438 C 630.871094 672.433594 450.367188 757.5 405.160156 775.488281 C 359.789062 757.5 179.449219 672.433594 120.792969 437.648438 C 107.34375 383.691406 111.394531 228.304688 115.445312 146.316406 C 177.503906 138.539062 324.628906 113.746094 405.160156 46.015625 C 485.6875 113.746094 632.976562 138.539062 694.871094 146.316406 C 698.761719 228.304688 702.972656 383.691406 689.523438 437.648438 Z M 689.523438 437.648438 " fill-opacity="1" fill-rule="nonzero"/><path fill="#212468" d="M 689.523438 437.648438 C 630.871094 672.433594 450.367188 757.5 405.160156 775.488281 L 405.160156 46.015625 C 485.6875 113.746094 632.976562 138.539062 694.871094 146.316406 C 698.761719 228.304688 702.972656 383.691406 689.523438 437.648438 Z M 689.523438 437.648438 " fill-opacity="1" fill-rule="nonzero"/><g mask="url(#ec629e51bc)"><g transform="matrix(1, 0, 0, 1, 210, 174)"><g clip-path="url(#8d869c8ede)"><g clip-path="url(#0ced8b8c9c)"><path fill="#e5e7eb" d="M 359.675781 155.007812 L 351.335938 155.007812 C 346.710938 155.007812 342.628906 152.015625 341.179688 147.664062 C 338.730469 140.320312 335.828125 133.15625 332.292969 126.355469 C 330.207031 122.183594 330.929688 117.195312 334.285156 113.839844 L 340.269531 107.855469 C 352.058594 96.066406 352.058594 76.75 340.269531 64.960938 L 325.582031 50.453125 C 313.792969 38.664062 294.566406 38.664062 282.6875 50.453125 L 276.703125 56.4375 C 273.4375 59.703125 268.359375 60.519531 264.28125 58.433594 C 257.480469 54.988281 250.316406 51.996094 242.96875 49.546875 C 238.527344 48.097656 235.625 44.015625 235.625 39.390625 L 235.625 31.046875 C 235.625 14.363281 222.023438 0.761719 205.335938 0.761719 L 184.753906 0.761719 C 168.066406 0.761719 154.464844 14.363281 154.464844 31.046875 L 154.464844 39.390625 C 154.464844 44.015625 151.472656 48.097656 147.121094 49.546875 C 139.773438 51.996094 132.609375 54.898438 125.808594 58.433594 C 121.636719 60.519531 116.652344 59.792969 113.296875 56.4375 L 107.3125 50.453125 C 95.523438 38.664062 76.207031 38.664062 64.417969 50.453125 L 49.820312 65.054688 C 38.03125 76.84375 38.03125 96.15625 49.820312 107.945312 L 55.804688 113.929688 C 59.070312 117.195312 59.882812 122.183594 57.800781 126.355469 C 54.351562 133.15625 51.359375 140.320312 48.910156 147.664062 C 47.460938 152.109375 43.378906 155.007812 38.753906 155.007812 L 30.414062 155.007812 C 13.636719 155.007812 0.0351562 168.613281 0.0351562 185.386719 L 0.0351562 205.972656 C 0.0351562 222.65625 13.636719 236.261719 30.324219 236.261719 L 38.664062 236.261719 C 43.289062 236.261719 47.371094 239.253906 48.820312 243.605469 C 51.269531 250.949219 54.171875 258.113281 57.707031 264.914062 C 59.792969 269.085938 59.070312 274.074219 55.714844 277.429688 L 49.726562 283.414062 C 37.941406 295.203125 37.941406 314.519531 49.726562 326.304688 L 64.417969 340.816406 C 76.207031 352.605469 95.429688 352.605469 107.3125 340.816406 L 113.296875 334.832031 C 116.558594 331.566406 121.636719 330.75 125.71875 332.835938 C 132.519531 336.28125 139.683594 339.273438 147.027344 341.722656 C 151.472656 343.171875 154.375 347.253906 154.375 351.878906 L 154.375 360.3125 C 154.375 376.996094 167.976562 390.597656 184.660156 390.597656 L 205.246094 390.597656 C 221.933594 390.597656 235.535156 376.996094 235.535156 360.3125 L 235.535156 351.878906 C 235.535156 347.253906 238.527344 343.171875 242.878906 341.722656 C 250.226562 339.273438 257.386719 336.371094 264.191406 332.835938 C 268.359375 330.75 273.347656 331.476562 276.703125 334.832031 L 282.6875 340.816406 C 294.476562 352.605469 313.792969 352.605469 325.582031 340.816406 L 340.179688 326.214844 C 351.96875 314.425781 351.96875 295.113281 340.179688 283.324219 L 334.195312 277.339844 C 330.929688 274.074219 330.113281 269.085938 332.199219 264.914062 C 335.644531 258.113281 338.640625 250.949219 341.085938 243.605469 C 342.539062 239.160156 346.617188 236.261719 351.242188 236.261719 L 359.585938 236.261719 C 376.273438 236.261719 389.875 222.65625 389.875 205.972656 L 389.875 185.386719 C 389.964844 168.613281 376.363281 155.007812 359.675781 155.007812 Z M 370.46875 205.882812 C 370.46875 211.867188 365.570312 216.671875 359.675781 216.671875 L 351.335938 216.671875 C 338.277344 216.671875 326.757812 225.015625 322.679688 237.4375 C 320.59375 243.785156 317.964844 250.042969 314.972656 256.027344 C 309.078125 267.726562 311.253906 281.78125 320.503906 291.121094 L 326.488281 297.105469 C 330.75 301.367188 330.75 308.171875 326.488281 312.433594 L 311.886719 327.03125 C 307.625 331.292969 300.734375 331.203125 296.5625 327.03125 L 290.578125 321.046875 C 281.328125 311.796875 267.273438 309.53125 255.484375 315.515625 C 249.5 318.507812 243.332031 321.136719 236.894531 323.222656 C 224.472656 327.304688 216.128906 338.820312 216.128906 351.878906 L 216.128906 360.3125 C 216.128906 366.296875 211.230469 371.101562 205.335938 371.101562 L 184.753906 371.101562 C 178.769531 371.101562 173.960938 366.207031 173.960938 360.3125 L 173.960938 351.878906 C 173.960938 338.820312 165.617188 327.304688 153.195312 323.222656 C 146.847656 321.136719 140.589844 318.507812 134.605469 315.515625 C 130.253906 313.339844 125.539062 312.25 120.914062 312.25 C 113.113281 312.25 105.40625 315.332031 99.601562 321.136719 L 93.617188 327.121094 C 89.355469 331.292969 82.554688 331.382812 78.292969 327.121094 L 63.691406 312.523438 C 59.429688 308.261719 59.429688 301.460938 63.691406 297.199219 L 69.679688 291.210938 C 78.925781 281.964844 81.195312 267.90625 75.210938 256.117188 C 72.21875 250.132812 69.585938 243.96875 67.5 237.53125 C 63.421875 225.105469 51.90625 216.761719 38.847656 216.761719 L 30.503906 216.761719 C 24.519531 216.761719 19.710938 211.867188 19.710938 205.972656 L 19.710938 185.386719 C 19.710938 179.402344 24.609375 174.597656 30.503906 174.597656 L 38.847656 174.597656 C 51.90625 174.597656 63.421875 166.253906 67.5 153.832031 C 69.585938 147.484375 72.21875 141.226562 75.210938 135.242188 C 81.105469 123.542969 78.925781 109.488281 69.679688 100.148438 L 63.691406 94.164062 C 59.429688 89.898438 59.429688 83.097656 63.691406 78.835938 L 78.292969 64.238281 C 82.554688 59.976562 89.355469 59.976562 93.617188 64.238281 L 99.601562 70.222656 C 108.851562 79.472656 123 81.738281 134.695312 75.753906 C 140.679688 72.761719 146.847656 70.132812 153.285156 68.046875 C 165.710938 63.964844 174.050781 52.449219 174.050781 39.390625 L 174.050781 31.046875 C 174.050781 25.0625 178.949219 20.257812 184.84375 20.257812 L 205.429688 20.257812 C 211.414062 20.257812 216.21875 25.152344 216.21875 31.046875 L 216.21875 39.390625 C 216.21875 52.449219 224.5625 63.964844 236.984375 68.046875 C 243.332031 70.132812 249.589844 72.761719 255.574219 75.753906 C 267.273438 81.648438 281.328125 79.472656 290.667969 70.222656 L 296.652344 64.238281 C 300.824219 59.976562 307.714844 59.976562 311.980469 64.238281 L 326.578125 78.835938 C 330.839844 83.097656 330.839844 89.898438 326.578125 94.164062 L 320.59375 100.148438 C 311.34375 109.398438 309.078125 123.453125 315.0625 135.242188 C 318.054688 141.226562 320.683594 147.390625 322.769531 153.832031 C 326.851562 166.253906 338.367188 174.597656 351.425781 174.597656 L 359.769531 174.597656 C 365.753906 174.597656 370.558594 179.492188 370.558594 185.386719 L 370.558594 205.882812 Z M 370.46875 205.882812 " fill-opacity="1" fill-rule="nonzero"/></g><path fill="#e5e7eb" d="M 195 93.253906 C 138.597656 93.253906 92.621094 139.140625 92.621094 195.632812 C 92.621094 252.128906 138.597656 298.015625 195 298.015625 C 251.402344 298.015625 297.378906 252.039062 297.378906 195.632812 C 297.378906 139.230469 251.402344 93.253906 195 93.253906 Z M 195 278.515625 C 149.296875 278.515625 112.117188 241.339844 112.117188 195.632812 C 112.117188 149.929688 149.296875 112.75 195 112.75 C 240.703125 112.75 277.882812 149.929688 277.882812 195.632812 C 277.882812 241.339844 240.703125 278.515625 195 278.515625 Z M 195 278.515625 " fill-opacity="1" fill-rule="nonzero"/></g></g></g></svg>